PathFileType	3	(X/Y/Z)	RCH0000001 BBF 02.c3d
DataRate	CameraRate	NumFrames	NumMarkers	Units	OrigDataRate	OrigDataStartFrame	OrigNumFrames
100.0	100.0	7	23	mm	100.0	119	68
Frame#	Time	T2			T10			MAN			LASI			RASI			LPSI			RPSI			LPAT			LANK			LMED			LHEE			LTOE			RPAT			RANK			RMED			RHEE			RTOE			RTHI			LTHI			RTIB			LTIB			LKNE			RKNE			
		X1	Y1	Z1	X2	Y2	Z2	X3	Y3	Z3	X4	Y4	Z4	X5	Y5	Z5	X6	Y6	Z6	X7	Y7	Z7	X8	Y8	Z8	X9	Y9	Z9	X10	Y10	Z10	X11	Y11	Z11	X12	Y12	Z12	X13	Y13	Z13	X14	Y14	Z14	X15	Y15	Z15	X16	Y16	Z16	X17	Y17	Z17	X18	Y18	Z18	X19	Y19	Z19	X20	Y20	Z20	X21	Y21	Z21	X22	Y22	Z22	X23	Y23	Z23	

119	1.180	530.37360	32.53785	1204.65088	500.66049	31.38957	998.37927	654.63300	28.42509	1157.90833	591.88281	134.50473	819.49396	585.75140	-94.74702	824.95862	466.06802	58.13346	892.17377	462.57230	-14.52331	888.94373	566.60535	101.08409	472.85577	502.57681	170.12361	137.21426	523.43323	96.12316	137.30376	458.57941	130.94420	122.99354	557.72015	159.26219	137.19661	597.72015	-47.80730	489.24692	492.51306	-106.66406	139.53339	518.99329	-35.37153	136.92834	454.53134	-63.44606	128.49110	552.30011	-99.07019	137.60355	537.57501	-171.07899	580.58398	500.94299	222.68700	608.74597	480.74899	-167.04100	316.22699	478.76801	229.13901	316.24301	496.89532	164.72928	450.62024	533.06708	-106.58564	455.84006	
120	1.190	530.36523	32.43427	1204.54041	500.74915	31.31631	998.35358	654.55408	28.30040	1157.81873	591.92236	134.47173	819.47589	585.84216	-94.78806	824.92786	466.13235	58.06913	892.16431	462.65347	-14.59788	888.93170	566.64960	101.05982	472.84631	502.57758	170.11887	137.21814	523.43860	96.11938	137.30005	458.58133	130.93874	122.99542	557.72186	159.25528	137.19672	597.79022	-47.82326	489.23886	492.51834	-106.66625	139.53288	518.99579	-35.37225	136.92694	454.53070	-63.45590	128.49425	552.30365	-99.06982	137.60141	537.66400	-171.11000	580.56799	500.97601	222.65199	608.74298	480.79999	-167.05701	316.22501	478.78299	229.11800	316.25400	496.93179	164.69977	450.62082	533.13861	-106.60845	455.83145	
121	1.200	530.35870	32.32522	1204.42957	500.83859	31.24026	998.32855	654.47931	28.17063	1157.72913	591.96100	134.43922	819.45819	585.93317	-94.82870	824.89630	466.19641	58.00492	892.15466	462.73450	-14.67266	888.91937	566.69373	101.03604	472.83701	502.57834	170.11418	137.22203	523.44403	96.11565	137.29637	458.58334	130.93326	122.99730	557.72357	159.24828	137.19682	597.85992	-47.83842	489.23071	492.52362	-106.66834	139.53230	518.99823	-35.37286	136.92537	454.52969	-63.46618	128.49725	552.30713	-99.06934	137.59923	537.75299	-171.14000	580.55200	501.00797	222.61700	608.73999	480.85101	-167.07300	316.22299	478.79800	229.09801	316.26401	496.96811	164.67050	450.62134	533.20996	-106.63084	455.82257	
122	1.210	530.35406	32.21070	1204.31824	500.92883	31.16144	998.30414	654.40869	28.03577	1157.63940	591.99890	134.40727	819.44080	586.02441	-94.86892	824.86401	466.26019	57.94081	892.14490	462.81537	-14.74764	888.90668	566.73779	101.01274	472.82785	502.57910	170.10953	137.22594	523.44946	96.11197	137.29269	458.58548	130.92778	122.99918	557.72540	159.24118	137.19691	597.92932	-47.85279	489.22250	492.52887	-106.67033	139.53165	519.00061	-35.37335	136.92365	454.52835	-63.47688	128.50014	552.31067	-99.06875	137.59700	537.84198	-171.17000	580.53601	501.03998	222.58299	608.73798	480.90201	-167.08800	316.22000	478.81299	229.07800	316.27399	497.00436	164.64146	450.62180	533.28119	-106.65281	455.81345	
123	1.220	530.35126	32.09070	1204.20654	501.01990	31.07985	998.28040	654.34229	27.89583	1157.54968	592.03595	134.37584	819.42383	586.11597	-94.90874	824.83093	466.32364	57.87683	892.13501	462.89609	-14.82282	888.89362	566.78180	100.98993	472.81882	502.57986	170.10492	137.22984	523.45490	96.10832	137.28905	458.58768	130.92229	123.00105	557.72717	159.23401	137.19699	597.99829	-47.86637	489.21426	492.53412	-106.67221	139.53091	519.00293	-35.37373	136.92175	454.52664	-63.48801	128.50288	552.31415	-99.06804	137.59473	537.93103	-171.20000	580.52002	501.07104	222.54900	608.73499	480.95200	-167.10300	316.21701	478.82800	229.05800	316.28400	497.04050	164.61270	450.62216	533.35211	-106.67434	455.80420	
124	1.230	530.35034	31.96523	1204.09424	501.11176	30.99548	998.25726	654.28003	27.75080	1157.45984	592.07214	134.34492	819.40723	586.20770	-94.94815	824.79712	466.38681	57.81295	892.12506	462.97665	-14.89820	888.88025	566.82568	100.96761	472.80997	502.58060	170.10036	137.23376	523.46039	96.10472	137.28543	458.58997	130.91679	123.00291	557.72906	159.22673	137.19705	598.06689	-47.87917	489.20593	492.53934	-106.67400	139.53011	519.00519	-35.37399	136.91969	454.52460	-63.49957	128.50551	552.31757	-99.06722	137.59242	538.02002	-171.22800	580.50299	501.10196	222.51601	608.73199	481.00299	-167.11800	316.21500	478.84399	229.03799	316.29401	497.07657	164.58417	450.62247	533.42291	-106.69542	455.79465	
125	1.240	530.35126	31.83428	1203.98157	501.20438	30.90834	998.23474	654.22192	27.60068	1157.37000	592.10754	134.31456	819.39099	586.29968	-94.98716	824.76257	466.44968	57.74919	892.11499	463.05710	-14.97378	888.86652	566.86945	100.94576	472.80124	502.58133	170.09584	137.23770	523.46594	96.10117	137.28183	458.59238	130.91129	123.00478	557.73096	159.21939	137.19708	598.13513	-47.89118	489.19757	492.54456	-106.67568	139.52924	519.00739	-35.37414	136.91748	454.52216	-63.51156	128.50801	552.32098	-99.06629	137.59006	538.10999	-171.25700	580.48700	501.13101	222.48300	608.72803	481.05399	-167.13300	316.21201	478.85800	229.01900	316.30399	497.11252	164.55588	450.62271	533.49347	-106.71609	455.78491	
